<?xml version="1.0" encoding="utf-8"?>
<!-- Generator: Adobe Illustrator 24.1.3, SVG Export Plug-In . SVG Version: 6.00 Build 0)  -->
<svg version="1.1" id="图层_1" xmlns="http://www.w3.org/2000/svg" xmlns:xlink="http://www.w3.org/1999/xlink" x="0px" y="0px"
	 viewBox="0 0 2400 2400" style="enable-background:new 0 0 2400 2400;" xml:space="preserve">
<style type="text/css">
	.st0{fill:#0075C2;}
	.st1{fill:#001A60;}
</style>
<g>
	<path class="st0" d="M1355.34,1156.09l-26.57-26.57c-3.36-3.36-8.87-3.36-12.23,0l-26.57,26.57c-3.36,3.36-3.36,8.87,0,12.23
		l10.65,10.65l0,0c0,0,2.86,1.63,4.21-1.43c0,0,2.21-4.29,10.17-6.62c0,0,0.63-0.28,1.1-1.23c0.12-0.25,0.24-0.61,0.1-2.33
		c-0.17-2.1-0.58-4.55-3.11-5.15c0,0-6.8-2.51-7.05-9.25l-0.31-5.08c0,0,0-0.03,0-0.09c-0.01-0.34,0.09-3.47,6.99-1.44l11.76,0.74
		c0,0,2.82,0.25,3.43,1.1c0,0,2.57-2.45,5.15-0.61c0,0,1.38,0.57,1.36,2.91c0,0.53-0.07,1.15-0.25,1.88c0.31,0.2,7.04,4.72,10.04,18
		c0,0,1.02,8.05,4.86,4.21l6.26-6.26C1358.7,1164.96,1358.7,1159.46,1355.34,1156.09z"/>
	<circle class="st1" cx="1320.63" cy="1152.06" r="1.35"/>
</g>
</svg>
